<?xml version="1.0" standalone="no"?>
<!DOCTYPE svg PUBLIC "-//W3C//DTD SVG 20010904//EN"
 "http://www.w3.org/TR/2001/REC-SVG-20010904/DTD/svg10.dtd">
<svg version="1.0" xmlns="http://www.w3.org/2000/svg"
 width="512.000000pt" height="512.000000pt" viewBox="0 0 512.000000 512.000000"
 preserveAspectRatio="xMidYMid meet">

<g transform="translate(0.000000,512.000000) scale(0.100000,-0.100000)"
fill="white" stroke="none">
<path d="M4065 5107 c-91 -30 -157 -88 -197 -172 -23 -49 -28 -73 -28 -135 0
-101 29 -163 118 -252 l66 -68 -1469 0 c-847 0 -1519 -4 -1585 -10 -489 -40
-875 -395 -955 -877 -14 -83 -16 -175 -13 -608 3 -506 3 -510 26 -555 35 -72
75 -114 144 -151 58 -31 70 -34 148 -34 78 0 90 3 148 34 70 38 100 69 140
145 l27 51 5 526 5 525 38 76 c64 130 174 209 317 228 90 11 3020 14 3020 2 0
-4 -28 -34 -61 -67 -38 -37 -72 -83 -90 -120 -59 -123 -29 -279 71 -369 67
-60 121 -81 215 -81 136 0 137 1 556 422 409 411 404 404 404 538 0 134 5 127
-404 538 -406 408 -417 417 -539 423 -39 2 -84 -2 -107 -9z"/>
<path d="M4725 2871 c-92 -24 -173 -90 -215 -176 l-25 -50 -5 -520 c-4 -347
-10 -531 -17 -552 -55 -157 -182 -262 -343 -283 -90 -11 -3020 -14 -3020 -2 0
4 28 34 61 67 38 37 72 83 90 120 59 123 29 279 -71 369 -67 60 -121 81 -215
81 -136 0 -137 -1 -556 -422 -409 -411 -404 -404 -404 -538 0 -134 -5 -127
404 -538 419 -421 420 -422 556 -422 94 0 148 21 215 81 65 59 100 141 100
234 0 101 -29 163 -118 253 l-66 67 1469 0 c847 0 1519 4 1585 10 190 16 349
71 504 174 240 161 403 415 451 703 14 83 16 175 13 608 l-3 510 -34 63 c-57
105 -144 160 -260 167 -36 2 -79 1 -96 -4z"/>
</g>
</svg>
