<?xml version="1.0" standalone="no"?>
<!DOCTYPE svg PUBLIC "-//W3C//DTD SVG 20010904//EN"
 "http://www.w3.org/TR/2001/REC-SVG-20010904/DTD/svg10.dtd">
<svg version="1.0" xmlns="http://www.w3.org/2000/svg"
 width="512.000000pt" height="512.000000pt" viewBox="0 0 512.000000 512.000000"
 preserveAspectRatio="xMidYMid meet">

<g transform="translate(0.000000,512.000000) scale(0.100000,-0.100000)"
fill="white" stroke="none">
<path d="M3920 4467 c-19 -6 -58 -34 -85 -62 -71 -70 -90 -145 -63 -239 9 -32
43 -72 151 -183 l139 -141 -384 -5 c-416 -5 -435 -7 -599 -67 -175 -64 -368
-199 -499 -350 l-52 -60 46 -73 c68 -108 154 -299 192 -426 3 -8 24 20 50 65
80 142 214 283 333 349 24 14 75 37 115 52 l71 27 365 4 365 3 -141 -143
c-109 -112 -143 -152 -152 -184 -27 -94 -8 -169 63 -240 76 -76 173 -94 266
-50 20 9 192 174 396 379 329 331 361 366 373 410 15 55 10 119 -14 168 -9 20
-174 192 -379 395 -306 305 -368 362 -403 372 -50 14 -107 14 -154 -1z"/>
<path d="M400 3827 c-49 -16 -133 -102 -148 -153 -25 -86 -9 -162 49 -228 75
-84 43 -80 669 -86 l555 -5 73 -28 c303 -117 504 -391 597 -817 91 -418 282
-753 551 -967 112 -90 239 -161 355 -201 162 -55 232 -62 617 -62 l346 0 -140
-142 c-145 -148 -164 -178 -164 -258 0 -124 116 -240 240 -240 91 0 94 3 477
384 205 203 370 375 379 395 24 49 29 113 14 168 -12 44 -44 79 -373 410 -204
205 -376 370 -396 379 -93 44 -190 26 -266 -50 -71 -71 -90 -146 -63 -240 9
-32 43 -72 152 -184 l141 -143 -365 3 c-340 4 -369 5 -420 25 -129 48 -235
117 -317 206 -148 161 -239 349 -298 616 -40 183 -87 321 -159 466 -81 165
-166 284 -286 405 -145 146 -286 237 -460 298 -166 58 -219 62 -799 61 -353
-1 -538 -5 -561 -12z"/>
<path d="M2042 2191 c-76 -138 -213 -280 -331 -346 -24 -14 -75 -37 -115 -52
l-71 -28 -555 -5 c-626 -6 -594 -2 -669 -86 -58 -66 -74 -142 -49 -228 17 -58
99 -138 158 -155 72 -20 1132 -10 1220 12 254 62 476 198 652 399 l50 58 -46
72 c-56 91 -129 244 -166 349 -15 44 -29 82 -31 84 -2 1 -23 -32 -47 -74z"/>
</g>
</svg>
