<svg width="25" height="25" viewBox="0 0 25 25" fill="currentColor" xmlns="http://www.w3.org/2000/svg"><path d="M17.246 24.9768C17.0484 24.7039 16.8454 24.4345 16.6548 24.158C16.2001 23.4982 15.7534 22.8322 15.2978 22.1724C14.6969 21.3024 14.0897 20.4358 13.4879 19.5658C12.9445 18.7797 12.4074 17.99 11.8632 17.2039C11.4546 16.6138 11.0397 16.0273 10.6276 15.4391C10.6028 15.4037 10.5806 15.3675 10.5593 15.334C10.2482 15.6961 9.94332 16.0547 9.63487 16.4107C8.90273 17.2578 8.16882 18.1031 7.43669 18.9502C6.53171 19.996 5.62763 21.0427 4.72265 22.0894C3.96659 22.9638 3.21141 23.8392 2.45535 24.7145C2.41723 24.7587 2.36316 24.794 2.33745 24.8435C2.26123 24.9945 2.13448 25.0016 1.98735 24.9998C1.36069 24.9919 0.734911 24.9936 0.108254 24.9901C0.0798909 24.9901 0.0515309 24.9821 0.0231673 24.9786L0.0240545 24.9813C0.0364636 24.953 0.0426729 24.9194 0.0621728 24.8973C0.65958 24.2048 1.25876 23.5132 1.85705 22.8216C2.61489 21.9454 3.37183 21.0692 4.12967 20.1929C4.99387 19.1939 5.85808 18.1949 6.72316 17.1959C7.41275 16.4001 8.10146 15.6042 8.79194 14.8084C9.02239 14.5434 9.25373 14.2793 9.48418 14.0143C9.5152 13.979 9.54268 13.941 9.57459 13.9004C9.42214 13.6796 9.27146 13.4623 9.12166 13.245C8.50564 12.3493 7.89228 11.4519 7.27449 10.558C6.58313 9.55813 5.88555 8.56178 5.19331 7.5619C4.16956 6.0815 3.14936 4.59846 2.12561 3.11807C1.47946 2.18355 0.82976 1.25079 0.182717 0.317153C0.130421 0.242074 0.0869905 0.159927 0.0284907 0.0901473C-0.0229182 0.028317 -0.000768752 0.00712061 0.0630492 0.00447075C0.180935 -0.000828994 0.298831 5.53742e-05 0.416717 5.53742e-05C2.69821 5.53742e-05 4.97881 5.17082e-05 7.2603 0.00181829C7.30108 0.00181829 7.3578 0.0230188 7.37907 0.0530506C7.78591 0.636905 8.18744 1.22429 8.59162 1.80903C9.65259 3.34419 10.7153 4.87935 11.7763 6.41451C12.3914 7.30398 13.0066 8.19433 13.6226 9.0838C13.6386 9.10765 13.6572 9.12974 13.6776 9.15623C13.8788 8.92393 14.0746 8.69692 14.2705 8.46992C15.265 7.31987 16.2586 6.16983 17.2531 5.01979C18.2547 3.86179 19.2572 2.70381 20.2588 1.54581C20.6674 1.07414 21.0804 0.605993 21.4811 0.128133C21.5768 0.0141891 21.6858 0.000939527 21.8108 0.000939527C22.3967 0.000939527 22.9826 0.00358832 23.5685 0.0053549C23.634 0.0053549 23.6996 0.0124216 23.79 0.0168381C23.759 0.0680689 23.7422 0.106048 23.7165 0.13608C23.3398 0.568009 22.9613 0.998174 22.5855 1.43099C22.2132 1.86026 21.8445 2.29307 21.4731 2.72323C21.0219 3.24437 20.5672 3.76287 20.1152 4.28489C19.6029 4.87582 19.0932 5.46938 18.5818 6.06031C17.9498 6.7899 17.3161 7.51774 16.685 8.24822C16.0202 9.01756 15.3581 9.79044 14.6942 10.5607C14.6579 10.6022 14.6605 10.6137 14.6995 10.6596C14.8077 10.7886 14.899 10.9316 14.9938 11.0703C15.5203 11.837 16.045 12.6046 16.5724 13.3704C17.1087 14.1486 17.6467 14.925 18.1847 15.7014C18.7174 16.469 19.2519 17.2357 19.7837 18.0033C20.2136 18.6233 20.6435 19.2443 21.0716 19.8652C21.762 20.8669 22.4508 21.8703 23.1412 22.872C23.5755 23.5017 24.0134 24.1298 24.4486 24.7587C24.4974 24.8293 24.5417 24.9026 24.5966 24.9883C24.5461 24.991 24.508 24.9954 24.4699 24.9954C22.1148 24.9945 19.7598 24.9936 17.4047 24.9919C17.3604 24.9919 17.3169 24.9883 17.2726 24.9866C17.2638 24.983 17.2549 24.9795 17.246 24.976V24.9768ZM3.01552 1.66771C3.15911 1.87528 3.2894 2.06519 3.42147 2.25333C4.03306 3.12249 4.64643 3.99076 5.25624 4.8608C5.66574 5.44553 6.06814 6.03646 6.47941 6.62031C7.46948 8.02563 8.4631 9.42829 9.45405 10.8336C9.77845 11.2938 10.0949 11.7602 10.4193 12.2204C10.9972 13.0418 11.5804 13.8606 12.1583 14.683C12.7549 15.5301 13.3469 16.3798 13.9426 17.2277C14.5737 18.126 15.2065 19.0226 15.8394 19.92C16.3198 20.6028 16.8011 21.2847 17.2815 21.9675C17.5935 22.4109 17.9073 22.8525 18.2139 23.3004C18.2689 23.3807 18.3203 23.4267 18.4214 23.4258C19.4274 23.4196 20.4334 23.417 21.4394 23.4125C21.4802 23.4125 21.521 23.4125 21.5679 23.4125C21.5165 23.3463 21.474 23.2968 21.4368 23.2438C20.9634 22.5655 20.4945 21.8836 20.0177 21.207C19.5639 20.563 19.0994 19.9271 18.6456 19.284C18.0677 18.4635 17.4978 17.6367 16.9216 16.8144C16.1408 15.7005 15.3572 14.5893 14.5746 13.4773C13.6758 12.2001 12.7779 10.9228 11.8791 9.64558C10.9343 8.30121 9.9903 6.95684 9.04544 5.61248C8.56148 4.92351 8.07575 4.23543 7.59091 3.54734C7.17698 2.95907 6.76306 2.37169 6.35267 1.78165C6.2924 1.6942 6.22503 1.66329 6.1169 1.66417C5.12949 1.66947 4.14209 1.66682 3.1538 1.66771C3.11391 1.66771 3.07491 1.66771 3.01552 1.66771Z" fill="currentColor"></path><path d="M0.0238175 24.9817L0.0227459 24.9785C0.0216754 24.9817 0.0206018 24.9839 0.0195312 24.9871C0.0216723 24.986 0.022748 24.9839 0.0248891 24.9828L0.0238175 24.9817Z" fill="#B8B8B8"></path></svg>